<svg width="28" height="21" viewBox="0 0 28 21" fill="none" xmlns="http://www.w3.org/2000/svg">
<path fill-rule="evenodd" clip-rule="evenodd" d="M13.4396 2.19767L11.0667 6.10465C9.40569 6.34884 7.50738 7.32558 6.08365 8.30233C4.89721 9.03488 4.18535 9.76744 3.71077 10.2558C4.65993 11.4767 5.60908 12.4535 6.79552 13.186L4.89721 16.3605C2.04976 14.407 0.626028 11.9651 0.626028 11.9651C-0.323125 10.9884 -0.0858368 9.27907 0.626028 8.30233C0.626028 8.54651 5.1345 2.44186 13.4396 2.19767ZM22.4565 4.63953C25.5413 6.59302 27.2023 8.7907 27.2023 8.7907C28.1515 9.76744 28.1515 11.4767 27.2023 12.4535C27.2023 12.4535 22.2192 19.2907 13.9142 19.2907H13.6769L16.0498 15.3837C17.9481 14.8953 19.8464 14.1628 21.5074 12.9419C22.4565 12.2093 23.1684 11.4767 23.8803 10.7442C23.1684 9.52326 21.982 8.54651 20.5582 7.81395L22.4565 4.63953ZM16.9989 0.976744C17.2362 0.732558 17.2362 0.488372 17.4735 0.244186C17.7108 0.244186 17.9481 0.244186 18.4226 0C18.6599 0 18.8972 0 19.1345 0C19.3718 0 19.6091 0.244186 19.8464 0.244186C20.0837 0.488372 20.3209 0.488372 20.5582 0.732558C20.7955 0.976744 20.7955 1.22093 20.7955 1.46512C20.7955 1.7093 20.7955 1.95349 20.7955 2.19767C20.7955 2.44186 20.5582 2.68605 20.5582 2.93023L10.5921 19.7791C10.3548 20.0233 10.1176 20.2674 9.88026 20.5116C9.64298 20.7558 9.40569 20.7558 9.1684 20.7558C8.93111 20.7558 8.69382 20.7558 8.45654 20.7558C8.21925 20.7558 7.98196 20.5116 7.74467 20.5116C7.2701 20.5116 7.2701 20.2674 7.03281 20.0233C6.79552 19.7791 6.79552 19.5349 6.79552 19.2907C6.79552 19.0465 6.79552 18.8023 6.79552 18.5581C6.79552 18.314 7.03281 18.0698 7.03281 17.8256L16.9989 0.976744Z" fill="#C2C2C2"/>
</svg>
