<svg width="22" height="32" viewBox="0 0 22 32" fill="none" xmlns="http://www.w3.org/2000/svg">
<path d="M21.695 10.846C21.695 4.868 16.828 0 10.849 0C4.868 0 0 4.867 0 10.846C0 16.046 3.675 20.403 8.566 21.45V23.974H6.153C4.991 23.974 4.049 24.924 4.049 26.084C4.049 27.246 4.991 28.195 6.153 28.195H8.566V29.845C8.566 31.007 9.516 31.949 10.678 31.949C11.84 31.949 12.789 31.009 12.789 29.845V28.195H15.323C16.484 28.195 17.426 27.246 17.426 26.084C17.426 24.924 16.485 23.974 15.323 23.974H12.789V21.52C17.814 20.605 21.695 16.165 21.695 10.846ZM4.209 10.846C4.209 7.185 7.187 4.209 10.846 4.209C14.507 4.209 17.482 7.185 17.482 10.846C17.482 14.506 14.506 17.485 10.846 17.485C7.186 17.484 4.209 14.506 4.209 10.846Z" fill="#5E54A4"/>
</svg>
