<svg width="26" height="26" viewBox="0 0 26 26" fill="none" xmlns="http://www.w3.org/2000/svg">
<path d="M23.7518 0.000320655C23.6612 -0.00534008 17.3609 0.0658234 17.3609 0.0658234C16.2376 0.0795709 15.3392 1.17614 15.3545 2.30019C15.3683 3.41374 16.2772 4.482 17.3883 4.482C17.3964 4.482 17.4053 4.482 17.415 4.482L18.5892 4.29115L16.4495 6.34681C14.7084 5.13299 12.6455 4.42944 10.479 4.42944C7.67858 4.42944 5.04634 5.49851 3.06589 7.47896C-1.02196 11.5668 -1.02196 18.2077 3.06589 22.2955C5.04634 24.2752 7.67858 25.3604 10.479 25.3604C13.2795 25.3604 15.9109 24.2654 17.8913 22.2866C21.4463 18.7317 22.0099 13.2408 19.3858 9.18041L21.7803 6.89186V8.31189C21.7803 9.43676 22.6868 10.3473 23.81 10.3473C24.9325 10.3473 25.8406 9.43676 25.8406 8.31189V2.01635C25.8374 1.47373 25.7509 0.123239 23.7518 0.000320655ZM15.0125 19.4061C13.8027 20.6175 12.1918 21.2863 10.4774 21.2863C8.76301 21.2863 7.15213 20.6175 5.94154 19.4061C3.43869 16.9057 3.43869 12.8348 5.94154 10.3328C7.15213 9.12138 8.76301 8.4526 10.4774 8.4526C12.1918 8.4526 13.8027 9.12138 15.0125 10.3328C17.5153 12.8348 17.5153 16.9065 15.0125 19.4061Z" fill="#5E54A4"/>
</svg>
