<svg width="194" height="194" viewBox="0 0 194 194" fill="none" xmlns="http://www.w3.org/2000/svg">
<circle cx="97" cy="97" r="91.5" stroke="#BAB7D4" stroke-width="11"/>
<path d="M53.3768 94.9436C51.1102 92.5263 47.3132 92.4042 44.8959 94.6708C42.4787 96.9374 42.3566 100.734 44.6232 103.152L53.3768 94.9436ZM75.2398 127.032L70.863 131.136L70.863 131.136L75.2398 127.032ZM80.9435 127.166L76.7648 122.86H76.7648L80.9435 127.166ZM149.179 69.3057C151.557 66.9979 151.613 63.1993 149.306 60.8214C146.998 58.4434 143.199 58.3865 140.821 60.6943L149.179 69.3057ZM44.6232 103.152L70.863 131.136L79.6167 122.928L53.3768 94.9436L44.6232 103.152ZM85.1221 131.472L149.179 69.3057L140.821 60.6943L76.7648 122.86L85.1221 131.472ZM70.863 131.136C74.6866 135.213 81.1106 135.365 85.1221 131.472L76.7648 122.86C77.5671 122.082 78.8519 122.112 79.6167 122.927L70.863 131.136Z" fill="#5E54A4"/>
</svg>
